<svg xmlns="http://www.w3.org/2000/svg" viewBox="0 0 154 40" role="img" aria-label="Refinery">
  <title>Refinery</title>
  <defs>
    <linearGradient id="ll-shell" x1="8" y1="4" x2="28" y2="28" gradientUnits="userSpaceOnUse">
      <stop offset="0%" stop-color="#8b5df0"/>
      <stop offset="52%" stop-color="#4a7ad8"/>
      <stop offset="100%" stop-color="#2ab5a8"/>
    </linearGradient>
    <linearGradient id="ll-body" x1="12" y1="5" x2="20" y2="27" gradientUnits="userSpaceOnUse">
      <stop offset="0%" stop-color="#f7fbff"/>
      <stop offset="100%" stop-color="#d9e4f1"/>
    </linearGradient>
    <linearGradient id="ll-meter" x1="22" y1="17" x2="28" y2="26" gradientUnits="userSpaceOnUse">
      <stop offset="0%" stop-color="#ffffff"/>
      <stop offset="100%" stop-color="#e8f0f8"/>
    </linearGradient>
    <linearGradient id="ll-line" x1="12" y1="10" x2="27" y2="24" gradientUnits="userSpaceOnUse">
      <stop offset="0%" stop-color="#6b4dc7"/>
      <stop offset="55%" stop-color="#4a7ad8"/>
      <stop offset="100%" stop-color="#2ab5a8"/>
    </linearGradient>
    <linearGradient id="ll-text" x1="40" y1="0" x2="150" y2="0" gradientUnits="userSpaceOnUse">
      <stop offset="0%" stop-color="#6b4dc7"/>
      <stop offset="100%" stop-color="#2d3748"/>
    </linearGradient>
  </defs>

  <g transform="translate(1 3)">
    <path d="M11.2 26.6H27.2" fill="none" stroke="url(#ll-shell)" stroke-width="1.45" stroke-linecap="round" opacity="0.38"/>
    <path d="M12.7 6.2H19.3L20.9 26.6H11.1Z" fill="url(#ll-body)" stroke="url(#ll-shell)" stroke-width="1.45" stroke-linejoin="round"/>
    <path d="M11.7 4.7H20.3L19.35 6.7H12.65Z" fill="#eef4fb" stroke="url(#ll-shell)" stroke-width="1.45" stroke-linejoin="round"/>
    <path d="M13.15 10.9H18.85M12.9 14H19.1M12.65 17.1H19.35M12.4 20.2H19.6M12.15 23.3H19.85" fill="none" stroke="url(#ll-line)" stroke-width="1.05" stroke-linecap="round" opacity="0.9"/>
    <path d="M20.15 13.4H24.3V17.2" fill="none" stroke="url(#ll-shell)" stroke-width="1.25" stroke-linecap="round" stroke-linejoin="round"/>
    <path d="M8.3 19.2H11.75" fill="none" stroke="url(#ll-shell)" stroke-width="1.25" stroke-linecap="round" opacity="0.82"/>
    <rect x="22" y="17.2" width="5.6" height="8.9" rx="1.35" fill="url(#ll-meter)" stroke="url(#ll-shell)" stroke-width="1.25"/>
    <path d="M23.75 23.5V20.8M24.95 23.5V19.1M26.15 23.5V21.4" fill="none" stroke="url(#ll-line)" stroke-width="0.95" stroke-linecap="round"/>
  </g>

  <text
    x="40" y="27.5"
    fill="url(#ll-text)"
    font-family="ui-monospace, 'JetBrains Mono', 'SF Mono', 'Cascadia Code', Menlo, monospace"
    font-size="22"
    font-weight="650"
    letter-spacing="0"
  >Refinery</text>
</svg>
